<?xml version="1.0" encoding="UTF-8"?>
<svg id="Capa_2" data-name="Capa 2" xmlns="http://www.w3.org/2000/svg" viewBox="0 0 767.98 575.99">
  <defs>
    <style>
      .cls-1 {
        fill: #010101;
      }

      .cls-2 {
        fill: #010000;
      }

      .cls-3 {
        fill: #030202;
      }

      .cls-4 {
        fill: #060505;
      }

      .cls-5 {
        fill: #060606;
      }

      .cls-6 {
        fill: #050505;
      }

      .cls-7 {
        fill: #050404;
      }

      .cls-8 {
        fill: #020202;
      }

      .cls-9 {
        fill: #020101;
      }

      .cls-10 {
        fill: #fcfcfc;
      }

      .cls-11 {
        fill: #fafafa;
      }

      .cls-12 {
        fill: #fbfbfb;
      }

      .cls-13 {
        fill: #141313;
      }

      .cls-14 {
        fill: #121111;
      }

      .cls-15 {
        fill: #121212;
      }

      .cls-16 {
        fill: #131313;
      }

      .cls-17 {
        fill: #131212;
      }

      .cls-18 {
        fill: #252424;
      }

      .cls-19 {
        fill: #0c0b0b;
      }

      .cls-20 {
        fill: #0b0a0a;
      }

      .cls-21 {
        fill: #090808;
      }

      .cls-22 {
        fill: #080707;
      }

      .cls-23 {
        fill: #080808;
      }

      .cls-24 {
        fill: #070606;
      }

      .cls-25 {
        fill: #070707;
      }

      .cls-26 {
        fill: #0d0d0d;
      }

      .cls-27 {
        fill: #111;
      }

      .cls-28 {
        fill: #111010;
      }

      .cls-29 {
        fill: #101010;
      }

      .cls-30 {
        fill: #0f0e0e;
      }

      .cls-31 {
        fill: #0f0f0f;
      }

      .cls-32 {
        fill: #0e0e0e;
      }

      .cls-33 {
        fill: #0a0909;
      }

      .cls-34 {
        fill: #0a0a0a;
      }

      .cls-35 {
        fill: #0e0d0d;
      }
    </style>
  </defs>
  <g id="Capa_1-2" data-name="Capa 1">
    <g>
      <path class="cls-13" d="M.08,575.99v-117.7C.08,306.54,.09,154.79,0,3.04,0,.31,.72,0,3.18,0,257.07,.07,510.96,.07,764.84,0c2.54,0,3.14,.43,3.14,3.08-.08,189.92-.07,379.85-.07,569.77v3.13H.08Z"/>
      <path class="cls-10" d="M388.47,510.26c-2.42-5.67-5.49-10.96-9.8-15.41-2.31-2.39-5.22-4.32-8.22-1.4-2.66,2.59-.79,5.13,1.14,7.39,7.85,9.14,12.29,19.91,15.01,31.5,.64,.62,.59,1.25,.04,1.89-.74,.16-1.32-.12-1.67-.75-9.39-16.83-24.73-27.08-40.74-36.44-21.36-12.48-44.07-22.37-65.88-33.99-19.52-10.41-38.54-21.66-54.99-36.72-6.28-5.75-12.45-11.58-15.37-19.92-.2-.58-.22-1.23-.41-2.42,10.35,5.08,20.22,9.95,30.12,14.77,1.78,.87,3.63,1.64,5.51,2.28,1.27,.43,2.68,.6,3.46-.97,.67-1.35,.39-2.68-.64-3.66-1.07-1.01-2.29-1.93-3.58-2.66-38.05-21.56-58.07-55.71-67.85-97.03-.15-.62-.49-1.19-.75-1.79-1.02-.76-.63-1.72-.37-2.66-.55-2.78-1.09-5.56-1.64-8.35-.94-.73-.74-1.9-1.08-2.86-.1-1.88-.02-3.77-.56-5.61,.21-2.31-.38-4.57-.51-6.86-.02-9.27,0-18.54-.01-27.81,.67-7.84,1.23-15.7,2.52-23.48,.32-1.35,.89-2.58,1.66-3.73,1.24-5.12,2.47-10.23,3.71-15.35,.01-3.08,.11-6.14,2.26-8.66,4.45-9.02,7.28-18.72,11.95-27.68,8-15.34,17.65-29.49,28.81-42.66,.88-3.61-.08-7.2-.15-10.8-.27-12.99-1.04-25.99,1.37-38.89,.59-4.43,1.17-8.86,1.76-13.29-.92-3.55,1.26-6.91,.66-10.44,2.21-3.09,1.07-7.32,3.54-10.33,1.25-2.75,2.5-5.49,3.75-8.24,.11-1.97,1.25-2.95,3.12-3.21,3.97-1.81,7.81-.93,11.57,.65,18.5,7.75,35.38,18.26,51.46,30.13,2.54,1.88,5.34,3.54,7.46,5.82,4.67,5.01,9.92,5.12,15.74,2.75,.79-.87,1.99-.57,2.93-1,2.62-.43,5.29-.49,7.9-1.02,2.17-.21,4.39,.14,6.52-.56,2.86,.25,5.65-.67,8.51-.53,2.91,0,5.82,0,8.72,0,2.6-.21,5.13,.71,7.73,.54,2.45,.85,5.07,.1,7.54,.8,8.35,.95,16.73,1.73,24.67,4.76,3.71,1.17,7.45,2.26,11.13,3.53,2.26,.78,3.35-.39,4.25-2.12,.8-2.56,2.7-4.11,4.93-5.35,4.68-4.7,9.37-9.41,14.05-14.11,.84-1.61,1.77-3.11,3.82-3.32,7.49-5.76,14.91-11.61,22.5-17.23,2.75-2.04,5.9-3.55,8.87-5.3,1.77-1.03,3.54-1.07,5.3,.02,2.41,1.47,3.75,3.84,5.19,6.13,2.5,3.2,1.93,7.27,3.1,10.86,1.45,7.22,2.22,14.52,2.77,21.86,.78,3.44-.23,7.01,.77,10.44,.06,6.58,.03,13.16,.02,19.74-.87,3.4-.27,6.87-.54,10.31-.09,.87-.42,1.66-.8,2.43-.66,2.2-.04,3.69,2.11,4.82,13,6.85,25.14,15.02,36.8,23.94,1.6-.04,2.3,1.03,2.83,2.31,12.96,11.45,22.01,25.3,25.93,42.29,1.07,.74,.65,1.69,.38,2.62,.55,4.13,1.1,8.25,1.65,12.38,2.24,7.22,.83,14.55,.64,21.83-.72,2.57-.34,5.23-.58,7.84-.88,4.71-.8,9.52-1.42,14.25-.64,2.11-.41,4.3-.54,6.46-.3,1-.15,2.16-1.08,2.93-1.61,11.83-3.36,23.65-4.73,35.51-.34,2.97-1.49,3.81-4.19,4.29-13.36,2.37-13.34,2.45-12.04-10.75,1.01-10.24,2-20.49,3-30.73-.87-4.89,.52-9.68,.65-14.52,.83-2.76,.25-5.6,.55-8.39,.53-1.63,.34-3.33,.54-4.99,.78-3.88,.18-7.8,.4-11.7,.01-.83,.15-1.65,.42-2.44,.04-2.44,.27-4.89-.14-7.32-.15-.51-.24-1.04-.26-1.57-.14-2.09,.23-4.21-.45-6.27-1.06-4.56-1.75-9.19-2.7-13.77-4.59-12.89-13.69-21.06-26.72-24.56-14.78-3.98-29.64-2.84-44.42,.41-.47,.79-1.07,.64-1.71,.25-10.51,1.58-20.63,4.55-30.42,8.67-2.6,1.77-5.35,3.16-8.57,3.37-18.54,7.73-35.3,18.26-50.18,31.77-.56,1.62-1.68,2.59-3.35,2.94-5.4,4.34-10.26,9.24-14.61,14.62-.36,1.66-1.33,2.78-2.94,3.34-25.6,29.42-44.31,62.14-47.57,101.92-1.87,22.81,4.28,43.73,16.65,62.89,5.61,8.69,11.81,16.94,18.94,24.45,1.89,.95,3.37,2.26,3.92,4.4,11.8,13.08,24.53,25.26,37.06,37.62,1.92,.88,3.32,2.23,3.93,4.3,7.29,8.66,13.87,17.79,18.92,27.96,2.01,2.51,3.23,5.31,3.23,8.58l2.84,14.3c1.04,2.15,.97,4.3,.04,6.46-.23,.61-.53,1.21-.69,1.85-.46,1.89-1.27,3.44-3.47,3.61-2.61,.2-3.24-1.83-3.94-3.68-1.62-4.29-2.17-8.95-4.58-12.97-1.19-1.68-3.02-3.09-2.4-5.55Z"/>
      <path class="cls-10" d="M351.61,377.14c-2.19,2.94-4.38,2-6.57,0-2.84-1.34-4.94-3.42-6.26-6.28-2.8-4.04-6.35-7.56-8.57-12-.71-1.41-2.14-2.64-1.36-4.51,.65-1.03,1.57-1.49,2.79-1.25,1.38-.6,2.75-1.2,4.13-1.8,6.6-3.75,14.03-5.19,21.14-7.51,1.8-.59,3.69-1.63,5.73-.66,6.28-1.01,12.57-2,18.84-3.05,1.25-.21,2.64-.32,3.21-1.81-.47-5.33-1.18-5.85-6.3-5.3-2.22,.24-4.42,1.29-6.72,.4-3.14,.22-6.26,.54-9.2,1.79-.51,.69-1.35,.53-2.02,.8-4.82,1.23-9.6,2.65-14.44,3.81-2.95,1.43-5.96,2.67-9.32,2.66-2.29,.84-4.72,1.42-6.83,2.58-3.65,2-5.55,1.1-6.11-2.94-.95-2.57-.87-5.15-.05-7.74,.98-1.56,2.72-2.07,4.16-2.99,4.73-2.48,10.02-2.7,15.11-3.75,8.1-2.11,16.47-2.13,24.7-3.23,4.65-.06,9.3-.19,13.92-.8,2.04,.36,4.1,.13,6.15,.25,4.98,.36,10.05-.2,14.93,1.31,2.64,.27,5.29,.45,7.92,.82,2.79,.39,5.43-.21,5.89-3.1,.49-3.11-2.29-4.19-4.85-4.49-12.71-1.53-25.46-2.24-38.28-1.59-15.08,.77-30.02,2.5-45.05,5.68,.49-3.57,3.04-5.53,4.17-8.21-.12-1.64,1.01-2.29,2.26-2.84,10.47-11.11,24.07-14.61,38.59-16.09,5.57-.57,11.28-.63,16.56-2.93,1.88-1.86,4.36-1.96,6.76-2.31,3.81-1.6,7.35-3.6,10.15-6.73,.85-1.77,2.11-3.12,3.95-3.88,4.63-4.51,7.88-10.08,11.69-15.22-.08-1.62,1.01-2.3,2.29-2.81,3.07-2.51,5.72-5.5,9.21-7.52,11.45-6.61,23.45-3.21,29.46,8.54,2.78,5.44,4.96,11.13,8.89,16.01,5.08,6.31,11.62,9.47,19.39,10.61,2.19-.64,4.09,.1,5.91,1.24,2.18,1.13,4.41,2.18,5.9,4.26,1.43,1.67,2.02,3.54,1.31,5.7q-.22,9.89-9.72,12.96c-1.51,.49-3.26,.57-4.26,2.1-.49,1.76,.15,3.42,.48,5.11,2.51,1.73,4.97,.9,7.44-.13,1-.77,2.14-.99,3.37-.88,1.05,.22,1.82,.76,1.97,1.91,.08,.66-.08,1.31-.14,1.97-.99,10.03-2.87,11.46-13.27,10.03-2.15,.89-3.14,2.88-2.43,4.72,1.36,3.56,5.34,2.51,8.48,3.86-4.92,9.52-11.55,17.72-18.18,25.91-1.88,3.63-4.73,6.3-8.23,8.33-9.4,8.08-19.62,14.88-30.97,19.94-3.31,1.88-6.68,3.53-10.65,3.27-19.16,3.88-37.81,1.93-56.01-4.97-3.05,.6-4.85-1.48-6.83-3.19-.93-.64-1.84-1.32-2.8-1.91q-6.95-4.28-2.23-10.51c1.91-3.66,4.73-6.42,8.35-8.38,10.07-8.68,21.05-15.99,32.95-21.91,1.69-1.16,3.06-3.09,5.55-2.33,6.51-2.09,7.39-3.1,6.07-7.01-2.56-1.58-5.35-.4-8.02-.64-15.09,5.48-28.66,13.44-40.2,24.7-1.24,2.24-2.8,4.13-5.35,4.94-1.52,.9-2.67,2.16-3.62,3.63-.82,2.54-2.72,4.1-4.92,5.38Z"/>
      <path class="cls-10" d="M476.7,409.41c17.26-18.17,30.76-38.75,39.82-62.17,.37-2.23,1.58-1.6,2.83-.83,2.91,1.09,5.75,2.53,8.76,3.18,4.79,1.03,5.08,3.44,3.3,7.36-3.96,8.76-8.47,17.21-13.32,25.5-7.89,13.47-17.35,25.81-27.23,37.85-.41,2.51-2.38,3.65-4.27,4.85-5.7,5.68-11.39,11.37-17.09,17.05-1.91,2.89-4.1,5.48-7.37,6.93-3.83,3.05-7.38,6.4-10.62,10.08-1.15,2.14-2.78,3.78-4.93,4.92-5.14,4.67-5.7,10.19-3.03,16.32,.84,3.5,1.04,7-.07,10.48-1.24,5.38-1.49,10.86-1.68,16.35,.53,7.94-.39,15.8-1.31,23.66-1.59,1.41-1.05,5.25-4.8,4.19-2.5-1.9-1.91-4.69-2.03-7.24-.7-14.22,1.51-28.39,.84-42.61-4.47-2.56-6.43-1.3-7.76,4.99-.08,7.55,.2,15.12-1.28,22.6-1.11,6.2-.55,12.47-.73,18.71-.08,2.93,.5,6.16-3.74,6.87-4.27,.72-5.82-2.05-7.03-5.33-.39-1.06-.76-2.12-1.13-3.19-1.18-1.13-.69-2.39-.32-3.65,0-8.68,0-17.36-.01-26.04-.39-4.72,.46-9.32,1.32-13.92,.46-.42,1.21-.76,1.34-1.27,2.88-11.86,9.1-21.93,16.61-31.33,.39-1.62,1.33-2.76,2.95-3.28,4.36-4.37,8.71-8.74,13.07-13.11,1.21-2.24,2.82-4.05,5.3-4.93,3.19-2.38,6.12-5.03,8.68-8.08,4.43-5.51,9.37-10.52,14.93-14.9Z"/>
      <path class="cls-12" d="M562.93,353.08c-5.88-3.11-11.95-5.77-18.35-7.62-1.64,.69-2.73-.4-3.89-1.23-5.38-2.48-11.19-3.51-16.88-4.93-1.91-.48-4.57,.07-4.34-3.3,.22-3.26,1.52-5.28,5.16-4.87,3.94-.82,7.45,.65,10.97,2.06,4.01,1.31,8.01,2.61,12.02,3.92,3.17,.29,6.06,1.29,8.51,3.39,2.75,1.47,5.6,2.81,8.24,4.45,4.18,2.6,4.32,4.41,.96,8.17-.82,.88-1.63,.9-2.42-.03Z"/>
      <path class="cls-11" d="M522.75,319.51c.69-3.17,2.49-4.65,5.89-4.39,1.74,.13,3.54-.44,5.31-.69,7.43-1.07,14.87-1.1,22.3,.02,2.11,.36,4.24,.62,6.32,1.1,2.42,.56,4.53,1.66,4.09,4.65-.44,2.99-2.78,3.42-5.25,3.28-6.94-.38-13.82-1.71-20.81-1.12-3.66,.61-7.31,.62-10.96,0l-6.6-.2c-1.4-.74-1.05-1.67-.29-2.65Z"/>
      <path class="cls-30" d="M434.5,485.26c1.8,1.56,1.24,3.66,1.13,5.57-.71,12.54-1.27,25.08-1.1,37.65,.03,2.27-.32,4.61,1.15,6.63-3.78-.79-2.95-4.11-2.93-6.35,.06-7.6-.6-15.2,.73-22.83,1.18-6.78-.96-13.85,1.02-20.67Z"/>
      <path class="cls-16" d="M550.56,234.69c-.04-7.36-.07-14.71-.11-22.07,.13-1.78,.26-3.56,.4-5.34,3.58,21.21-.88,42.03-2.99,63-.13-1.45-.26-2.9-.4-4.35,.08-.89,.16-1.79,.24-2.68,.99-2.1-.08-4.47,.84-6.58-.32-4.87,.72-9.63,1.22-14.43,.93-2.45-.19-5.11,.8-7.55Z"/>
      <path class="cls-29" d="M367.65,325.13c-8.33,1.01-16.66,2.02-24.99,3.03-.35-.2-.47-.4-.36-.6,.11-.2,.23-.31,.35-.31,4.8-2.61,10.24-1.96,15.36-2.82,5.82-.98,11.82-.86,17.75-1.22,2.26-.69,4.53-.69,6.79,0,1.74,0,3.47,0,5.21,0,2.26-.69,4.53-.69,6.79,0,2.68,.09,5.36,.17,8.04,.28,.07,0,.19,.24,.18,.36,0,.15-.11,.29-.17,.44-5.14,.82-10.29,.57-15.45,.12-1.66,0-3.32,0-4.99,0-4.8,.96-9.72-.32-14.52,.72Z"/>
      <path class="cls-34" d="M221.81,89.57c-.87,15.21-1.78,30.42-.16,45.65,.15,1.39,.6,3.04-1.05,4.04-1.83-18.33-1.1-36.64,.32-55.36,1.3,2.05,.39,3.96,.89,5.67Z"/>
      <path class="cls-27" d="M346.67,81.18c-2.81,.24-5.61,.71-8.43,.17-2.11,.92-4.45-.07-6.57,.79-2.72-.01-5.25,1.57-8.04,.99-.44-.16-.76-.45-.97-.87,2.91-2.03,6.45-1.3,9.6-1.7,12.35-1.57,24.79-1.68,37.19-.1,.43,.06,.81,.53,1.21,.81-.25,.15-.5,.29-.74,.44-2.28,0-4.59,.36-6.83-.37l-7.44-.17c-2.99-.65-5.98-.64-8.97,0Z"/>
      <path class="cls-15" d="M425.46,512.85c.1-7.55-.24-15.13,1.28-22.6,1.91,3.79,1.27,7.95,.74,11.71-1.43,10.13-.47,20.27-.84,30.38-.04,.96-.15,1.91-1.18,2.85v-22.35Z"/>
      <path class="cls-15" d="M532.5,222.26c0,.68-.02,1.36-.03,2.03-1.04,4.14,.33,8.42-.8,12.55,.57,1.5,.17,2.97-.16,4.44-1.06,2.75,.2,5.72-.81,8.47,.29,4.89-.57,9.69-1.2,14.5-1.76-2.4-1.02-5.19-.8-7.7,.94-10.85,2.21-21.67,2.01-32.59-.01-.56,.58-1.13,.89-1.69,.29-.5,.59-.48,.9-.01Z"/>
      <path class="cls-19" d="M170.52,289.26c.1,2.18,.2,4.36,.3,6.53,.76,1.75-.09,3.72,.74,5.46,.1,.9,.19,1.8,.29,2.7-.1,.66-.19,1.32-.29,1.98-3.54-15.06-2.8-30.38-2.86-45.66,.67-.34,1.14-.16,1.41,.54,.37,9.48-.39,18.97,.41,28.45Z"/>
      <path class="cls-31" d="M395.4,86.4c-8.25-1.41-16.5-2.81-24.74-4.22-.33-.19-.44-.39-.34-.58,.11-.2,.21-.3,.32-.3,0,0,.01-.01,.01-.01,9.32-.48,18.08,2.45,27.05,4.81-.77,.1-1.54,.2-2.3,.3Z"/>
      <path class="cls-35" d="M480.76,124.27c.01-.67,.02-1.34,.03-2.01,.97-3.47-.3-7.1,.78-10.55,0-6.62,0-13.23,0-19.85-.83-3.24-.3-6.53-.37-9.79,.14-.26,.29-.52,.43-.78,1.23,.97,.99,2.35,.99,3.65,.01,11.54,0,23.08,.01,34.62,0,1.84,.11,3.69-1.88,4.72Z"/>
      <path class="cls-14" d="M362.64,343.13c-8.96,2.72-17.91,5.44-26.87,8.16-.48-.19-1.67-.62-1.04-.85,8.74-3.2,17.27-7.12,26.69-8.06,.38-.04,.81,.48,1.22,.74Z"/>
      <path class="cls-16" d="M490.64,333.32c1.45-.17,2.92-.29,4.36-.52,1.93-.3,4.32,1.57,5.73-1.19,1.81-3.52,2.3-7.32,2.25-11.21,0-.1-.91-.2-1.39-.3-.55-.54-1.52-.13-1.97-.88,3.58-2.1,4.97-1,5.07,3.06,.08,3.44-1.16,6.44-2.1,9.58-.77,2.58-2.83,2.52-4.81,2.35-2.39-.21-4.97,.9-7.15-.9Z"/>
      <path class="cls-31" d="M169.7,260.27c-.33,0-.67,0-1,0,1.35-8.33,.87-16.95,3.98-25,.28,.24,.38,.48,.3,.74-.08,.26-.16,.39-.25,.39-.73,7.96-1.47,15.92-2.2,23.88-.27,.49-.55,.49-.83,0Z"/>
      <path class="cls-32" d="M480.75,81.29c-1-7.34-1.99-14.67-2.99-22.01,.18-.44,.48-.77,.9-1,2.66,7.45,3.08,15.2,2.98,23.01,0,0,0,0,0,0-.3,.45-.59,.45-.88,0Z"/>
      <path class="cls-34" d="M556.24,314.45c-7.43,0-14.86-.01-22.3-.02l-7.29-.39c0-.18,.01-.36,.02-.54h33.83c.01,.17,.02,.33,.03,.5-1.43,.15-2.86,.3-4.3,.45Z"/>
      <path class="cls-34" d="M440.49,530.92c-.06-7.91,.44-15.8,1.31-23.66,1.77,4.1,1.02,8.45,.64,12.57-.34,3.74-.82,7.46-.82,11.22,0,.37,.28,1.11-.49,1-.27-.04-.43-.73-.65-1.13Z"/>
      <path class="cls-4" d="M476.7,409.41c-4.51,5.43-9.53,10.36-14.93,14.9-1.41-1.54,.4-2,1.02-2.64,3.69-3.82,7.44-7.58,11.26-11.27,.64-.62,1.12-2.44,2.64-.99Z"/>
      <path class="cls-27" d="M532.48,213.26c0,.35,0,.69,0,1.04-.17,.43-.47,.76-.88,.98-.84-7.35-3.22-14.49-3.1-21.98,2.53,4.12,2.1,8.94,3.19,13.4,.89,2.11-.1,4.45,.79,6.56Z"/>
      <path class="cls-27" d="M371.66,333.37c2.92-.42,5.84-1.08,8.78-1.21,4.32-.18,5.42,1.56,4.25,6.11-1.25-3.94-3.23-6.13-7.85-4.17-1.45,.61-3.63,.76-5.18-.73Z"/>
      <path class="cls-29" d="M342.65,327.25c0,.3,.01,.61,.01,.91-4.93,1.06-9.87,2.12-14.8,3.18-1.21-.31-2.17-.67-.11-1.22,4.9-1.3,9.69-3.19,14.9-2.87Z"/>
      <path class="cls-30" d="M345.66,339.35c4.86-1.84,9.93-2.89,15-3.94,.35,.2,.46,.39,.34,.59-.12,.19-.23,.29-.35,.29-4.85,1.89-9.8,3.39-14.99,4-.3-.21-.4-.41-.3-.62,.1-.21,.2-.31,.3-.31Z"/>
      <path class="cls-20" d="M443.48,490.92c.02-3.49,.05-6.99,.07-10.48,.39-1-.45-2.31,.85-3.19v18.91c-.18,0-.36,.01-.55,.02-.13-1.75-.25-3.5-.38-5.25Z"/>
      <path class="cls-32" d="M428.65,399.35c3.55-1.09,7.1-2.18,10.65-3.27-2.85,3.36-6.33,4.67-10.65,3.27Z"/>
      <path class="cls-33" d="M413.83,486.3c.21,4.7-.57,9.31-1.32,13.92-1.99-4.87-.29-9.39,1.32-13.92Z"/>
      <path class="cls-17" d="M227.77,55.5c-1.07,3.28-.45,7.09-3.04,9.91-.31-.24-.43-.49-.34-.74,.09-.26,.19-.39,.29-.39,.54-3.05,.86-6.16,1.7-9.12,.55-1.91,1.15-.78,1.38,.35Z"/>
      <path class="cls-26" d="M478.66,58.27c-.3,.33-.6,.67-.9,1-.77-3.55-1.54-7.09-2.3-10.64,3.02,.17,1.74,2.88,2.54,4.35,.9,1.66,.58,3.5,.66,5.28Z"/>
      <path class="cls-34" d="M535.62,333.18c-3.66-.69-7.32-1.37-10.97-2.06,4.09-1.63,7.72-.78,10.97,2.06Z"/>
      <path class="cls-14" d="M556.15,340.49c-3.14-.36-5.7-2.2-8.51-3.39,3.74-1.47,6.36,.91,9.13,2.71,.02,0-.11,.29-.21,.41-.11,.12-.27,.18-.41,.27Z"/>
      <path class="cls-15" d="M400.67,506.24c-1.08-2.86-2.15-5.72-3.23-8.58,3.61,1.9,4.27,4.92,3.23,8.58Z"/>
      <path class="cls-32" d="M403.54,527c-.01-2.15-.02-4.31-.04-6.46,.14-1.41,.27-2.82,.41-4.23,.17,.01,.35,.02,.52,.03v12.86c-1.13-.54-.62-1.51-.89-2.2Z"/>
      <path class="cls-18" d="M387.15,324.41c5.15-.04,10.3-.08,15.45-.12,.03,.28,.04,.55,.06,.83-5.18,.03-10.36,.06-15.51-.71Z"/>
      <path class="cls-26" d="M416.66,181.43c2.63-1.69,5.6-2.54,8.57-3.37-2.07,3.13-4.91,4.29-8.57,3.37Z"/>
      <path class="cls-34" d="M224.68,64.28c.02,.38,.03,.76,.05,1.14,.49,3.71-.19,7.3-1.16,10.86-2.1-4.23,.27-8.04,1.11-12Z"/>
      <path class="cls-7" d="M369.13,370.38c-2.78,2.79-5.56,5.59-8.35,8.38,1.1-4.47,3.9-7.25,8.35-8.38Z"/>
      <path class="cls-4" d="M470.27,376.14c2.74-2.78,5.49-5.55,8.23-8.33-1.09,4.41-3.9,7.13-8.23,8.33Z"/>
      <path class="cls-17" d="M345.66,339.35c0,.31,0,.62,0,.93-2.72,1.84-5.4,3.87-8.97,2.16,2.99-1.03,5.98-2.06,8.97-3.08Z"/>
      <path class="cls-3" d="M405.69,338.48c2.78-1.07,5.58-2.48,8.02,.64-2.71,.27-5.43,.62-8.02-.64Z"/>
      <path class="cls-35" d="M179.84,209.6c-.75,2.89-1.51,5.77-2.26,8.66-1.97-3.66,.7-6.68,1.48-9.94,.04-.18,.59,.77,.78,1.28Z"/>
      <path class="cls-5" d="M462.13,449.12c2.46-2.31,4.91-4.62,7.37-6.93-.91,3.95-3.49,6.13-7.37,6.93Z"/>
      <path class="cls-23" d="M323.7,334.34c.02,2.58,.03,5.16,.05,7.74-.1,.97-.19,1.94-.29,2.91-.2,0-.41,.02-.61,.03,0-3.55,0-7.1,.02-10.65,0-.07,.24-.2,.37-.2,.15,0,.3,.12,.46,.18Z"/>
      <path class="cls-15" d="M365.81,391.19c2.28,1.06,4.55,2.13,6.83,3.19-3.36,1.25-5.63,.18-6.83-3.19Z"/>
      <path class="cls-16" d="M396.62,290.05c-2.09,1.25-4.38,1.9-6.76,2.31-.42-.19-.83-.39-1.25-.58,2.57-1.03,4.92-3.08,8.01-1.73Z"/>
      <path class="cls-22" d="M529.64,322.36c3.65,0,7.31,0,10.96,0-3.66,1.44-7.31,1.45-10.96,0Z"/>
      <path class="cls-4" d="M338.78,370.85c2.09,2.09,4.17,4.19,6.26,6.28-3.62-.56-5.71-2.65-6.26-6.28Z"/>
      <path class="cls-21" d="M446.58,464.12c1.25-2.04,2.99-3.58,4.93-4.92-.29,2.99-1.93,4.64-4.93,4.92Z"/>
      <path class="cls-25" d="M415.71,82.45c-1.64,1.78-3.29,3.57-4.93,5.35,.29-3.03,1.57-5.15,4.93-5.35Z"/>
      <path d="M491.28,320.43c-1.62-1.56-2.32-3.22-.48-5.11,.91,1.63,1.71,3.27,.48,5.11Z"/>
      <path class="cls-25" d="M453.08,432.38c-1.77,1.64-3.53,3.29-5.3,4.93,.2-3.33,2.31-4.6,5.3-4.93Z"/>
      <path class="cls-33" d="M497.57,290.29c-1.97-.41-3.94-.83-5.91-1.24,2.5-1.73,4.74-.39,7.01,.6-.06,.13-.09,.33-.19,.37-.29,.12-.61,.18-.91,.27Z"/>
      <path class="cls-4" d="M351.61,377.14c1.3-2.1,3.02-3.82,4.92-5.38-.27,3.04-1.63,5.09-4.92,5.38Z"/>
      <path class="cls-4" d="M360.14,368.13c1.78-1.65,3.57-3.29,5.35-4.94-.19,3.37-2.33,4.63-5.35,4.94Z"/>
      <path class="cls-16" d="M407.63,346.14c-2.13,.12-3.34,2.43-5.55,2.33,1.08-2.62,2.7-3.95,5.55-2.33Z"/>
      <path class="cls-28" d="M388.47,510.26c.44,2.01,2.43,3.34,2.4,5.55-2.65-1.05-3.88-2.71-2.4-5.55Z"/>
      <path class="cls-24" d="M486.58,425.14c1.42-1.62,2.85-3.23,4.27-4.85,.33,3.16-1.43,4.48-4.27,4.85Z"/>
      <path class="cls-23" d="M410.72,279.44c-.97,1.64-2.28,2.95-3.95,3.88-.04-2.67,1.17-4.07,3.95-3.88Z"/>
      <path class="cls-6" d="M504.78,300.25c-.44-1.9-.87-3.8-1.31-5.7,3.37,.91,1.69,3.71,2.15,5.72h0s-.42-.01-.42-.01c0,0-.42,0-.42,0Z"/>
      <path class="cls-4" d="M505.62,300.27c2,2.48,.58,5.21,0,7.87v-7.87s0,0,0,0Z"/>
      <path class="cls-24" d="M433.59,65.02c-1.27,1.11-2.55,2.21-3.82,3.32-.07-2.66,1.14-3.84,3.82-3.32Z"/>
      <path class="cls-25" d="M378.52,469.7c-1.31-1.43-2.62-2.87-3.93-4.3,3.18-.27,3.71,1.87,3.93,4.3Z"/>
      <path class="cls-24" d="M337.53,427.78c-1.6-1.21-2.93-2.66-3.92-4.4,3.14-.16,3.76,1.92,3.92,4.4Z"/>
      <path class="cls-1" d="M531.61,215.28c.29-.33,.59-.65,.88-.98,0,2.65,.01,5.31,.02,7.96-.3,.01-.6,.02-.9,.01,0-2.33,0-4.67,0-7Z"/>
      <path class="cls-2" d="M470.26,42.51c-1.77,0-3.53-.01-5.3-.02,1.61-2.26,3.7-1.06,5.66-.78,.01,0,.02,.31-.04,.44-.06,.14-.21,.25-.32,.37Z"/>
      <path class="cls-18" d="M382.55,323.21c-2.26,0-4.53,0-6.79,0,2.27-1.44,4.53-1.44,6.79,0Z"/>
      <path class="cls-18" d="M394.54,323.21c-2.26,0-4.53,0-6.79,0,2.27-1.44,4.53-1.44,6.79,0Z"/>
      <path class="cls-1" d="M499.63,319.24c.66,.29,1.31,.59,1.97,.88-.96,.06-1.92,.12-2.88,.18-1.05-.12-2.09-.24-3.14-.37,0-.16,0-.32,0-.48l4.04-.23Z"/>
      <path class="cls-24" d="M234.64,44.05c-1.04,1.07-2.08,2.14-3.12,3.21-.64-2.71,.35-3.83,3.12-3.21Z"/>
      <path class="cls-9" d="M322.66,82.27c.32,.29,.65,.58,.97,.87-.92,.09-1.84,.18-2.76,.26-1.07-.13-2.14-.26-3.2-.39l.03-.74h4.96Z"/>
      <path class="cls-5" d="M540.7,344.23c1.3,.41,2.59,.82,3.89,1.23-1.74,1.73-3.38,.14-4.78-.46-.77-.33,.55-.49,.89-.77Z"/>
      <path class="cls-5" d="M424.7,261.41c-.76,.94-1.53,1.87-2.29,2.81-1.07-2.43,.17-2.98,2.29-2.81Z"/>
      <path class="cls-24" d="M334.71,311.38c-.75,.95-1.5,1.9-2.26,2.84-1.09-2.41,.05-3.05,2.26-2.84Z"/>
      <path class="cls-4" d="M345.59,234.11c.98-1.11,1.96-2.23,2.94-3.34-.22,1.78,.18,4.1-2.94,3.34Z"/>
      <path class="cls-4" d="M434.72,450.42c-.98,1.09-1.96,2.19-2.95,3.28,.24-1.76-.16-4.09,2.95-3.28Z"/>
      <path class="cls-29" d="M331.64,353.09c-.93,.42-1.86,.83-2.79,1.25-.7-.44-.73-.99-.12-1.47,1.01-.81,2.01-.78,2.91,.22Z"/>
      <path class="cls-4" d="M363.14,216.15c1.12-.98,2.23-1.96,3.35-2.94,.77,3.13-1.57,2.71-3.35,2.94Z"/>
      <path class="cls-7" d="M519.34,346.41c-1.07-.14-2.1-.16-2.83,.83-.34-3.22,1.77-1.79,3.19-1.66,0,0,.03,.32-.03,.46-.06,.14-.22,.25-.33,.37Z"/>
      <path class="cls-4" d="M522.5,155.34c-.94-.77-1.88-1.54-2.83-2.31,2.14-.69,3.32-.22,2.83,2.31Z"/>
      <path class="cls-8" d="M455.66,169.39c.57-.08,1.14-.17,1.71-.25,.75,.14,1.5,.28,2.97,.54-2.11,.75-3.44,.95-4.68-.29Z"/>
      <path class="cls-1" d="M360.65,336.28c0-.29,0-.58,.01-.87,.6-.08,1.2-.16,1.8-.24,.74,.14,1.47,.28,2.21,.41,0,.17-.02,.33-.03,.5-1.33,.07-2.66,.13-3.99,.2Z"/>
      <path class="cls-2" d="M548.8,200.24c-.13-.87-.25-1.74-.38-2.62,.18-.43,.25-1.09,.56-1.23,.66-.29,.58,.41,.6,.76,.05,1.1,.21,2.24-.77,3.08Z"/>
      <path class="cls-1" d="M562.93,353.08c.81,.01,1.61,.02,2.42,.03,.77,2.07-.98,.95-1.53,1.08-.45,.11-2.08,.43-.89-1.11Z"/>
      <path d="M412.52,526.26c.11,1.22,.21,2.44,.32,3.65-2.19-1.04-1.24-2.35-.32-3.65Z"/>
      <path d="M386.64,534.24c-.01-.63-.03-1.26-.04-1.89,.1-.64,.2-1.29,.39-2.54,.84,1.96,1.04,3.25-.34,4.43Z"/>
      <path class="cls-1" d="M421.87,539.75c-1.1,.7-2.76,.69-2.87,.24-.31-1.25,.96-.45,1.51-.61,.34-.1,.8,.2,1.35,.37Z"/>
      <path class="cls-2" d="M522.75,319.51c.1,.88,.19,1.77,.29,2.65-1.69-.55-1.38-1.97-1.37-3.23,0-.53,.28-.85,.75-.32,.2,.22,.23,.6,.33,.91Z"/>
      <path class="cls-1" d="M172.73,236.39c-.02-.37-.03-.75-.05-1.12,.27-.97-.58-2.17,.6-2.96,.2,.43,.39,.87,.59,1.3-.08,1.05,.24,2.26-1.14,2.78Z"/>
      <path class="cls-1" d="M240.9,41.76c-1.09,.69-2.76,.65-2.87,.22-.31-1.27,.95-.47,1.51-.62,.35-.09,.81,.22,1.36,.4Z"/>
      <path class="cls-2" d="M173.48,312.3c.12,.89,.25,1.77,.37,2.66-.18,.42-.26,1.09-.56,1.21-.65,.25-.56-.44-.57-.8-.04-1.09-.2-2.22,.76-3.07Z"/>
      <path class="cls-13" d="M169.7,260.27c.28,0,.55,0,.83,0,0,9.66,0,19.33-.01,28.99-1.86-5.12-.55-10.42-.81-15.62-.22-4.44-.02-8.91,0-13.36Z"/>
      <path class="cls-13" d="M531.67,236.85c.33-4.18-.99-8.47,.8-12.55,.02,4.2,.44,8.43-.8,12.55Z"/>
      <path class="cls-13" d="M480.75,81.29c.29,0,.59,0,.88,0-.02,3.52-.04,7.04-.06,10.57-.98-3.47-.82-7.03-.82-10.57Z"/>
      <path class="cls-13" d="M481.57,111.71c-.26,3.52,.99,7.15-.78,10.55,.02-3.54-.26-7.09,.78-10.55Z"/>
      <path class="cls-13" d="M346.67,81.18c2.99-1.38,5.98-1.39,8.97,0-2.99,0-5.98,0-8.97,0Z"/>
      <path class="cls-13" d="M530.71,249.76c.23-2.83-1-5.79,.81-8.47,.07,2.85,.28,5.72-.81,8.47Z"/>
      <path class="cls-13" d="M550.56,234.69c-.29,2.52,.88,5.19-.8,7.55,0-2.55-.27-5.12,.8-7.55Z"/>
      <path class="cls-13" d="M370.64,81.29c0,.29,0,.59,.01,.88-2.56,.03-5.12,.1-7.57-.83,2.52-.02,5.04-.04,7.56-.05Z"/>
      <path class="cls-13" d="M548.54,256.68c-.24,2.2,.87,4.57-.84,6.58-.01-2.23-.34-4.5,.84-6.58Z"/>
      <path class="cls-13" d="M331.67,82.14c2.03-1.6,4.37-.57,6.57-.79-2.1,.99-4.34,.83-6.57,.79Z"/>
      <path class="cls-13" d="M532.48,213.26c-1.62-2.02-.59-4.36-.79-6.56,1.07,2.09,.88,4.33,.79,6.56Z"/>
      <path class="cls-13" d="M171.56,301.26c-1.48-1.65-.74-3.61-.74-5.46,.94,1.73,.85,3.59,.74,5.46Z"/>
      <path class="cls-13" d="M472.53,315.24c-5.29,5.73-7.63,13.43-12.88,19.22-3.06,3.38-5.93,2.67-8.02-.45-4.22-6.31-7.08-13.46-12.08-19.35-1.36-1.6-.88-3.8,1.15-5.16,6.82-1.46,13.73-.39,20.58-.74,2.77-.14,5.57,.41,8.32-.35,1.08-.08,1.65,.6,2.15,1.41,.86,1.72,.72,3.58,.78,5.41Z"/>
      <path class="cls-1" d="M469.6,308.42c-4.14,1.78-8.48,.59-12.72,.8-5.39,.26-10.79,.2-16.18,.28,.63-.86,1.49-1.35,2.54-1.35,8.79-.03,17.58-.78,26.36,.26Z"/>
      <path class="cls-18" d="M367.65,325.13c4.76-1.8,9.66-.78,14.51-.72-4.81,.8-9.66,.73-14.51,.72Z"/>
      <path class="cls-8" d="M472.53,315.24c-1.53-1.62-.69-3.58-.78-5.41,1.75,1.59,2.59,3.31,.78,5.41Z"/>
    </g>
  </g>
</svg>