<?xml version="1.0" encoding="UTF-8"?>
<svg id="Capa_2" data-name="Capa 2" xmlns="http://www.w3.org/2000/svg" viewBox="0 0 767.98 575.99">
  <defs>
    <style>
      .cls-1 {
        fill: #010101;
      }

      .cls-2 {
        fill: #fff;
      }

      .cls-3 {
        fill: #141313;
      }
    </style>
  </defs>
  <g id="Capa_1-2" data-name="Capa 1">
    <g>
      <path class="cls-2" d="M.08,575.99v-117.7C.08,306.54,.09,154.79,0,3.04,0,.31,.72,0,3.18,0,257.07,.07,510.96,.07,764.84,0c2.54,0,3.14,.43,3.14,3.08-.08,189.92-.07,379.85-.07,569.77v3.13H.08Z"/>
      <path class="cls-3" d="M380.34,465.33c7.29,8.66,13.87,17.79,18.92,27.96,2.01,2.51,3.23,5.31,3.23,8.58l2.84,14.3c1.04,2.15,.97,4.3,.04,6.46-.23,.61-.53,1.21-.69,1.85-.46,1.89-1.27,3.44-3.47,3.61-2.61,.2-3.24-1.83-3.94-3.68-1.62-4.29-2.17-8.95-4.58-12.97-1.19-1.68-3.02-3.09-2.4-5.55-2.42-5.67-5.49-10.96-9.8-15.41-2.31-2.39-5.22-4.32-8.22-1.4-2.66,2.59-.79,5.13,1.14,7.39,7.85,9.14,12.29,19.91,15.01,31.5,.64,.62,.59,1.25,.04,1.89-.74,.16-1.32-.12-1.67-.75-9.39-16.83-24.73-27.08-40.74-36.44-21.36-12.48-44.07-22.37-65.88-33.99-19.52-10.41-38.54-21.66-54.99-36.72-6.28-5.75-12.45-11.58-15.37-19.92-.2-.58-.22-1.23-.41-2.42,10.35,5.08,20.22,9.95,30.12,14.77,1.78,.87,3.63,1.64,5.51,2.28,1.27,.43,2.68,.6,3.46-.97,.67-1.35,.39-2.68-.64-3.66-1.07-1.01-2.29-1.93-3.58-2.66-38.05-21.56-58.07-55.71-67.85-97.03-.15-.62-.49-1.19-.75-1.79-1.02-.76-.63-1.72-.37-2.66-.55-2.78-1.09-5.56-1.64-8.35-.94-.73-.74-1.9-1.08-2.86-.1-1.88-.02-3.77-.56-5.61,.21-2.31-.38-4.57-.51-6.86-.02-9.27,0-18.54-.01-27.81,.67-7.84,1.23-15.7,2.52-23.48,.32-1.35,.89-2.58,1.66-3.73,1.24-5.12,2.47-10.23,3.71-15.35,.01-3.08,.11-6.14,2.26-8.66,4.45-9.02,7.28-18.72,11.95-27.68,8-15.34,17.65-29.49,28.81-42.66,.88-3.61-.08-7.2-.15-10.8-.27-12.99-1.04-25.99,1.37-38.89,.59-4.43,1.17-8.86,1.76-13.29-.92-3.55,1.26-6.91,.66-10.44,2.21-3.09,1.07-7.32,3.54-10.33,1.25-2.75,2.5-5.49,3.75-8.24,.11-1.97,1.25-2.95,3.12-3.21,3.97-1.81,7.81-.93,11.57,.65,18.5,7.75,35.38,18.26,51.46,30.13,2.54,1.88,5.34,3.54,7.46,5.82,4.67,5.01,9.92,5.12,15.74,2.75,.79-.87,1.99-.57,2.93-1,2.62-.43,5.29-.49,7.9-1.02,2.17-.21,4.39,.14,6.52-.56,2.86,.25,5.65-.67,8.51-.53,2.91,0,5.82,0,8.72,0,2.6-.21,5.13,.71,7.73,.54,2.45,.85,5.07,.1,7.54,.8,8.35,.95,16.73,1.73,24.67,4.76,3.71,1.17,7.45,2.26,11.13,3.53,2.26,.78,3.35-.39,4.25-2.12,.8-2.56,2.7-4.11,4.93-5.35,4.68-4.7,9.37-9.41,14.05-14.11,.84-1.61,1.77-3.11,3.82-3.32,7.49-5.76,14.91-11.61,22.5-17.23,2.75-2.04,5.9-3.55,8.87-5.3,1.77-1.03,3.54-1.07,5.3,.02,2.41,1.47,3.75,3.84,5.19,6.13,2.5,3.2,1.93,7.27,3.1,10.86,1.45,7.22,2.22,14.52,2.77,21.86,.78,3.44-.23,7.01,.77,10.44,.06,6.58,.03,13.16,.02,19.74-.87,3.4-.27,6.87-.54,10.31-.09,.87-.42,1.66-.8,2.43-.66,2.2-.04,3.69,2.11,4.82,13,6.85,25.14,15.02,36.8,23.94,1.6-.04,2.3,1.03,2.83,2.31,12.96,11.45,22.01,25.3,25.93,42.29,1.07,.74,.65,1.69,.38,2.62,.55,4.13,1.1,8.25,1.65,12.38,2.24,7.22,.83,14.55,.64,21.83-.72,2.57-.34,5.23-.58,7.84-.88,4.71-.8,9.52-1.42,14.25-.64,2.11-.41,4.3-.54,6.46-.3,1-.15,2.16-1.08,2.93-1.61,11.83-3.36,23.65-4.73,35.51-.34,2.97-1.49,3.81-4.19,4.29-13.36,2.37-13.34,2.45-12.04-10.75,1.01-10.24,2-20.49,3-30.73-.87-4.89,.52-9.68,.65-14.52,.83-2.76,.25-5.6,.55-8.39,.53-1.63,.34-3.33,.54-4.99,.78-3.88,.18-7.8,.4-11.7,.01-.83,.15-1.65,.42-2.44,.04-2.44,.27-4.89-.14-7.32-.15-.51-.24-1.04-.26-1.57-.14-2.09,.23-4.21-.45-6.27-1.06-4.56-1.75-9.19-2.7-13.77-4.59-12.89-13.69-21.06-26.72-24.56-14.78-3.98-29.64-2.84-44.42,.41-.47,.79-1.07,.64-1.71,.25-10.51,1.58-20.63,4.55-30.42,8.67-2.6,1.77-5.35,3.16-8.57,3.37-18.54,7.73-35.3,18.26-50.18,31.77-.56,1.62-1.68,2.59-3.35,2.94-5.4,4.34-10.26,9.24-14.61,14.62-.36,1.66-1.33,2.78-2.94,3.34-25.6,29.42-44.31,62.14-47.57,101.92-1.87,22.81,4.28,43.73,16.65,62.89,5.61,8.69,11.81,16.94,18.94,24.45"/>
      <path class="cls-3" d="M339.35,423.41c11.8,13.08,24.53,25.26,37.06,37.62"/>
      <path class="cls-3" d="M338.51,338.07c-2.29,.84-4.72,1.42-6.83,2.58-3.65,2-5.55,1.1-6.11-2.94-.95-2.57-.87-5.15-.05-7.74,.98-1.56,2.72-2.07,4.16-2.99,4.73-2.48,10.02-2.7,15.11-3.75,8.1-2.11,16.47-2.13,24.7-3.23,4.65-.06,9.3-.19,13.92-.8,2.04,.36,4.1,.13,6.15,.25,4.98,.36,10.05-.2,14.93,1.31,2.64,.27,5.29,.45,7.92,.82,2.79,.39,5.43-.21,5.89-3.1,.49-3.11-2.29-4.19-4.85-4.49-12.71-1.53-25.46-2.24-38.28-1.59-15.08,.77-30.02,2.5-45.05,5.68,.49-3.57,3.04-5.53,4.17-8.21-.12-1.64,1.01-2.29,2.26-2.84,10.47-11.11,24.07-14.61,38.59-16.09,5.57-.57,11.28-.63,16.56-2.93,1.88-1.86,4.36-1.96,6.76-2.31,3.81-1.6,7.35-3.6,10.15-6.73,.85-1.77,2.11-3.12,3.95-3.88,4.63-4.51,7.88-10.08,11.69-15.22-.08-1.62,1.01-2.3,2.29-2.81,3.07-2.51,5.72-5.5,9.21-7.52,11.45-6.61,23.45-3.21,29.46,8.54,2.78,5.44,4.96,11.13,8.89,16.01,5.08,6.31,11.62,9.47,19.39,10.61,2.19-.64,4.09,.1,5.91,1.24,2.18,1.13,4.41,2.18,5.9,4.26,1.43,1.67,2.02,3.54,1.31,5.7q-.22,9.89-9.72,12.96c-1.51,.49-3.26,.57-4.26,2.1-.49,1.76,.15,3.42,.48,5.11,2.51,1.73,4.97,.9,7.44-.13,1-.77,2.14-.99,3.37-.88,1.05,.22,1.82,.76,1.97,1.91,.08,.66-.08,1.31-.14,1.97-.99,10.03-2.87,11.46-13.27,10.03-2.15,.89-3.14,2.88-2.43,4.72,1.36,3.56,5.34,2.51,8.48,3.86-4.92,9.52-11.55,17.72-18.18,25.91-1.88,3.63-4.73,6.3-8.23,8.33-9.4,8.08-19.62,14.88-30.97,19.94-3.31,1.88-6.68,3.53-10.65,3.27-19.16,3.88-37.81,1.93-56.01-4.97-3.05,.6-4.85-1.48-6.83-3.19-.93-.64-1.84-1.32-2.8-1.91q-6.95-4.28-2.23-10.51c1.91-3.66,4.73-6.42,8.35-8.38,10.07-8.68,21.05-15.99,32.95-21.91,1.69-1.16,3.06-3.09,5.55-2.33,6.51-2.09,7.39-3.1,6.07-7.01-2.56-1.58-5.35-.4-8.02-.64-15.09,5.48-28.66,13.44-40.2,24.7-1.24,2.24-2.8,4.13-5.35,4.94-1.52,.9-2.67,2.16-3.62,3.63-.82,2.54-2.72,4.1-4.92,5.38-2.19,2.94-4.38,2-6.57,0-2.84-1.34-4.94-3.42-6.26-6.28-2.8-4.04-6.35-7.56-8.57-12-.71-1.41-2.14-2.64-1.36-4.51,.65-1.03,1.57-1.49,2.79-1.25,1.38-.6,2.75-1.2,4.13-1.8,6.6-3.75,14.03-5.19,21.14-7.51,1.8-.59,3.69-1.63,5.73-.66,6.28-1.01,12.57-2,18.84-3.05,1.25-.21,2.64-.32,3.21-1.81-.47-5.33-1.18-5.85-6.3-5.3-2.22,.24-4.42,1.29-6.72,.4-3.14,.22-6.26,.54-9.2,1.79-.51,.69-1.35,.53-2.02,.8-4.82,1.23-9.6,2.65-14.44,3.81"/>
      <path class="cls-3" d="M488.41,420.78c-5.7,5.68-11.39,11.37-17.09,17.05-1.91,2.89-4.1,5.48-7.37,6.93-3.83,3.05-7.38,6.4-10.62,10.08-1.15,2.14-2.78,3.78-4.93,4.92-5.14,4.67-5.7,10.19-3.03,16.32,.84,3.5,1.04,7-.07,10.48-1.24,5.38-1.49,10.86-1.68,16.35,.53,7.94-.39,15.8-1.31,23.66-1.59,1.41-1.05,5.25-4.8,4.19-2.5-1.9-1.91-4.69-2.03-7.24-.7-14.22,1.51-28.39,.84-42.61-4.47-2.56-6.43-1.3-7.76,4.99-.08,7.55,.2,15.12-1.28,22.6-1.11,6.2-.55,12.47-.73,18.71-.08,2.93,.5,6.16-3.74,6.87-4.27,.72-5.82-2.05-7.03-5.33-.39-1.06-.76-2.12-1.13-3.19-1.18-1.13-.69-2.39-.32-3.65,0-8.68,0-17.36-.01-26.04-.39-4.72,.46-9.32,1.32-13.92,.46-.42,1.21-.76,1.34-1.27,2.88-11.86,9.1-21.93,16.61-31.33,.39-1.62,1.33-2.76,2.95-3.28,4.36-4.37,8.71-8.74,13.07-13.11,1.21-2.24,2.82-4.05,5.3-4.93,3.19-2.38,6.12-5.03,8.68-8.08,4.43-5.51,9.37-10.52,14.93-14.9,17.26-18.17,30.76-38.75,39.82-62.17,.37-2.23,1.58-1.6,2.83-.83,2.91,1.09,5.75,2.53,8.76,3.18,4.79,1.03,5.08,3.44,3.3,7.36-3.96,8.76-8.47,17.21-13.32,25.5-7.89,13.47-17.35,25.81-27.23,37.85"/>
      <path class="cls-3" d="M564.76,348.71c-5.88-3.11-11.95-5.77-18.35-7.62-1.64,.69-2.73-.4-3.89-1.23-5.38-2.48-11.19-3.51-16.88-4.93-1.91-.48-4.57,.07-4.34-3.3,.22-3.26,1.52-5.28,5.16-4.87,3.94-.82,7.45,.65,10.97,2.06,4.01,1.31,8.01,2.61,12.02,3.92,3.17,.29,6.06,1.29,8.51,3.39,2.75,1.47,5.6,2.81,8.24,4.45,4.18,2.6,4.32,4.41,.96,8.17-.82,.88-1.63,.9-2.42-.03Z"/>
      <path class="cls-3" d="M524.57,315.14c.69-3.17,2.49-4.65,5.89-4.39,1.74,.13,3.54-.44,5.31-.69,7.43-1.07,14.87-1.1,22.3,.02,2.11,.36,4.24,.62,6.32,1.1,2.42,.56,4.53,1.66,4.09,4.65-.44,2.99-2.78,3.42-5.25,3.28-6.94-.38-13.82-1.71-20.81-1.12-3.66,.61-7.31,.62-10.96,0l-6.6-.2c-1.4-.74-1.05-1.67-.29-2.65Z"/>
      <path class="cls-3" d="M436.32,480.9c1.8,1.56,1.24,3.66,1.13,5.57-.71,12.54-1.27,25.08-1.1,37.65,.03,2.27-.32,4.61,1.15,6.63-3.78-.79-2.95-4.11-2.93-6.35,.06-7.6-.6-15.2,.73-22.83,1.18-6.78-.96-13.85,1.02-20.67Z"/>
      <path class="cls-3" d="M223.64,85.2c-.87,15.21-1.78,30.42-.16,45.65,.15,1.39,.6,3.04-1.05,4.04-1.83-18.33-1.1-36.64,.32-55.36,1.3,2.05,.39,3.96,.89,5.67Z"/>
      <path class="cls-3" d="M348.49,76.81c-2.81,.24-5.61,.71-8.43,.17-2.11,.92-4.45-.07-6.57,.79-2.72-.01-5.25,1.57-8.04,.99-.44-.16-.76-.45-.97-.87,2.91-2.03,6.45-1.3,9.6-1.7,12.35-1.57,24.79-1.68,37.19-.1,.43,.06,.81,.53,1.21,.81-.25,.15-.5,.29-.74,.44-2.28,0-4.59,.36-6.83-.37l-7.44-.17c-2.99-.65-5.98-.64-8.97,0Z"/>
      <path class="cls-3" d="M427.28,508.48c.1-7.55-.24-15.13,1.28-22.6,1.91,3.79,1.27,7.95,.74,11.71-1.43,10.13-.47,20.27-.84,30.38-.04,.96-.15,1.91-1.18,2.85v-22.35Z"/>
      <path class="cls-3" d="M534.33,217.9c0,.68-.02,1.36-.03,2.03-1.04,4.14,.33,8.42-.8,12.55,.57,1.5,.17,2.97-.16,4.44-1.06,2.75,.2,5.72-.81,8.47,.29,4.89-.57,9.69-1.2,14.5-1.76-2.4-1.02-5.19-.8-7.7,.94-10.85,2.21-21.67,2.01-32.59-.01-.56,.58-1.13,.89-1.69,.29-.5,.59-.48,.9-.01Z"/>
      <path class="cls-3" d="M172.34,284.89c.1,2.18,.2,4.36,.3,6.53,.76,1.75-.09,3.72,.74,5.46,.1,.9,.19,1.8,.29,2.7-.1,.66-.19,1.32-.29,1.98-3.54-15.06-2.8-30.38-2.86-45.66,.67-.34,1.14-.16,1.41,.54,.37,9.48-.39,18.97,.41,28.45Z"/>
      <path class="cls-3" d="M482.58,119.91c.01-.67,.02-1.34,.03-2.01,.97-3.47-.3-7.1,.78-10.55,0-6.62,0-13.23,0-19.85-.83-3.24-.3-6.53-.37-9.79,.14-.26,.29-.52,.43-.78,1.23,.97,.99,2.35,.99,3.65,.01,11.54,0,23.08,.01,34.62,0,1.84,.11,3.69-1.88,4.72Z"/>
      <path class="cls-3" d="M364.47,338.77c-8.96,2.72-17.91,5.44-26.87,8.16-.48-.19-1.67-.62-1.04-.85,8.74-3.2,17.27-7.12,26.69-8.06,.38-.04,.81,.48,1.22,.74Z"/>
      <path class="cls-3" d="M492.46,328.96c1.45-.17,2.92-.29,4.36-.52,1.93-.3,4.32,1.57,5.73-1.19,1.81-3.52,2.3-7.32,2.25-11.21,0-.1-.91-.2-1.39-.3-.55-.54-1.52-.13-1.97-.88,3.58-2.1,4.97-1,5.07,3.06,.08,3.44-1.16,6.44-2.1,9.58-.77,2.58-2.83,2.52-4.81,2.35-2.39-.21-4.97,.9-7.15-.9Z"/>
      <path class="cls-3" d="M171.52,255.9c-.33,0-.67,0-1,0,1.35-8.33,.87-16.95,3.98-25,.28,.24,.38,.48,.3,.74-.08,.26-.16,.39-.25,.39-.73,7.96-1.47,15.92-2.2,23.88-.27,.49-.55,.49-.83,0Z"/>
      <path class="cls-3" d="M482.57,76.92c-1-7.34-1.99-14.67-2.99-22.01,.18-.44,.48-.77,.9-1,2.66,7.45,3.08,15.2,2.98,23.01,0,0,0,0,0,0-.3,.45-.59,.45-.88,0Z"/>
      <path class="cls-3" d="M442.31,526.56c-.06-7.91,.44-15.8,1.31-23.66,1.77,4.1,1.02,8.45,.64,12.57-.34,3.74-.82,7.46-.82,11.22,0,.37,.28,1.11-.49,1-.27-.04-.43-.73-.65-1.13Z"/>
      <path class="cls-3" d="M534.31,208.9c0,.35,0,.69,0,1.04-.17,.43-.47,.76-.88,.98-.84-7.35-3.22-14.49-3.1-21.98,2.53,4.12,2.1,8.94,3.19,13.4,.89,2.11-.1,4.45,.79,6.56Z"/>
      <path class="cls-3" d="M347.49,334.99c4.86-1.84,9.93-2.89,15-3.94,.35,.2,.46,.39,.34,.59-.12,.19-.23,.29-.35,.29-4.85,1.89-9.8,3.39-14.99,4-.3-.21-.4-.41-.3-.62,.1-.21,.2-.31,.3-.31Z"/>
      <path class="cls-3" d="M415.65,481.93c.21,4.7-.57,9.31-1.32,13.92-1.99-4.87-.29-9.39,1.32-13.92Z"/>
      <path class="cls-3" d="M480.48,53.91c-.3,.33-.6,.67-.9,1-.77-3.55-1.54-7.09-2.3-10.64,3.02,.17,1.74,2.88,2.54,4.35,.9,1.66,.58,3.5,.66,5.28Z"/>
      <path class="cls-3" d="M537.44,328.82c-3.66-.69-7.32-1.37-10.97-2.06,4.09-1.63,7.72-.78,10.97,2.06Z"/>
      <path class="cls-3" d="M226.51,59.91c.02,.38,.03,.76,.05,1.14,.49,3.71-.19,7.3-1.16,10.86-2.1-4.23,.27-8.04,1.11-12Z"/>
      <path class="cls-3" d="M407.51,334.12c2.78-1.07,5.58-2.48,8.02,.64-2.71,.27-5.43,.62-8.02-.64Z"/>
      <path class="cls-3" d="M325.52,329.97c.02,2.58,.03,5.16,.05,7.74-.1,.97-.19,1.94-.29,2.91-.2,0-.41,.02-.61,.03,0-3.55,0-7.1,.02-10.65,0-.07,.24-.2,.37-.2,.15,0,.3,.12,.46,.18Z"/>
      <path class="cls-3" d="M531.46,317.99c3.65,0,7.31,0,10.96,0-3.66,1.44-7.31,1.45-10.96,0Z"/>
      <path class="cls-3" d="M340.61,366.49c2.09,2.09,4.17,4.19,6.26,6.28-3.62-.56-5.71-2.65-6.26-6.28Z"/>
      <path class="cls-3" d="M453.34,454.83c-.29,2.99-1.93,4.64-4.93,4.92"/>
      <path class="cls-3" d="M493.11,316.06c-1.62-1.56-2.32-3.22-.48-5.11,.91,1.63,1.71,3.27,.48,5.11Z"/>
      <path class="cls-3" d="M412.55,275.08c-.97,1.64-2.28,2.95-3.95,3.88"/>
      <path class="cls-3" d="M533.44,210.91c.29-.33,.59-.65,.88-.98,0,2.65,.01,5.31,.02,7.96-.3,.01-.6,.02-.9,.01,0-2.33,0-4.67,0-7Z"/>
      <path class="cls-3" d="M472.08,38.15c-1.77,0-3.53-.01-5.3-.02,1.61-2.26,3.7-1.06,5.66-.78,.01,0,.02,.31-.04,.44-.06,.14-.21,.25-.32,.37Z"/>
      <path class="cls-3" d="M426.53,257.05c-.76,.94-1.53,1.87-2.29,2.81"/>
      <path class="cls-3" d="M336.53,307.02c-.75,.95-1.5,1.9-2.26,2.84-1.09-2.41,.05-3.05,2.26-2.84Z"/>
      <path class="cls-3" d="M436.54,446.06c-.98,1.09-1.96,2.19-2.95,3.28"/>
      <path class="cls-3" d="M333.47,348.73c-.93,.42-1.86,.83-2.79,1.25-.7-.44-.73-.99-.12-1.47,1.01-.81,2.01-.78,2.91,.22Z"/>
      <path class="cls-3" d="M521.17,342.04c-1.07-.14-2.1-.16-2.83,.83-.34-3.22,1.77-1.79,3.19-1.66,0,0,.03,.32-.03,.46-.06,.14-.22,.25-.33,.37Z"/>
      <path class="cls-1" d="M564.76,348.71c.81,.01,1.61,.02,2.42,.03,.77,2.07-.98,.95-1.53,1.08-.45,.11-2.08,.43-.89-1.11Z"/>
      <path d="M414.35,521.9c.11,1.22,.21,2.44,.32,3.65-2.19-1.04-1.24-2.35-.32-3.65Z"/>
      <path d="M388.47,529.87c-.01-.63-.03-1.26-.04-1.89,.1-.64,.2-1.29,.39-2.54,.84,1.96,1.04,3.25-.34,4.43Z"/>
      <path class="cls-1" d="M423.69,535.39c-1.1,.7-2.76,.69-2.87,.24-.31-1.25,.96-.45,1.51-.61,.34-.1,.8,.2,1.35,.37Z"/>
      <path class="cls-3" d="M524.57,315.14c.1,.88,.19,1.77,.29,2.65-1.69-.55-1.38-1.97-1.37-3.23,0-.53,.28-.85,.75-.32,.2,.22,.23,.6,.33,.91Z"/>
      <path class="cls-3" d="M171.52,255.9c.28,0,.55,0,.83,0,0,9.66,0,19.33-.01,28.99-1.86-5.12-.55-10.42-.81-15.62-.22-4.44-.02-8.91,0-13.36Z"/>
      <path class="cls-3" d="M533.5,232.49c.33-4.18-.99-8.47,.8-12.55,.02,4.2,.44,8.43-.8,12.55Z"/>
      <path class="cls-3" d="M482.57,76.92c.29,0,.59,0,.88,0-.02,3.52-.04,7.04-.06,10.57-.98-3.47-.82-7.03-.82-10.57Z"/>
      <path class="cls-3" d="M483.4,107.34c-.26,3.52,.99,7.15-.78,10.55,.02-3.54-.26-7.09,.78-10.55Z"/>
      <path class="cls-3" d="M348.49,76.81c2.99-1.38,5.98-1.39,8.97,0-2.99,0-5.98,0-8.97,0Z"/>
      <path class="cls-3" d="M532.54,245.39c.23-2.83-1-5.79,.81-8.47,.07,2.85,.28,5.72-.81,8.47Z"/>
      <path class="cls-3" d="M552.39,230.33c-.29,2.52,.88,5.19-.8,7.55,0-2.55-.27-5.12,.8-7.55Z"/>
      <path class="cls-3" d="M372.47,76.93c0,.29,0,.59,.01,.88-2.56,.03-5.12,.1-7.57-.83,2.52-.02,5.04-.04,7.56-.05Z"/>
      <path class="cls-3" d="M550.37,252.31c-.24,2.2,.87,4.57-.84,6.58-.01-2.23-.34-4.5,.84-6.58Z"/>
      <path class="cls-3" d="M333.5,77.78c2.03-1.6,4.37-.57,6.57-.79-2.1,.99-4.34,.83-6.57,.79Z"/>
      <path class="cls-3" d="M534.31,208.9c-1.62-2.02-.59-4.36-.79-6.56,1.07,2.09,.88,4.33,.79,6.56Z"/>
      <path class="cls-3" d="M173.38,296.89c-1.48-1.65-.74-3.61-.74-5.46,.94,1.73,.85,3.59,.74,5.46Z"/>
      <path class="cls-2" d="M474.36,310.88c-5.29,5.73-7.63,13.43-12.88,19.22-3.06,3.38-5.93,2.67-8.02-.45-4.22-6.31-7.08-13.46-12.08-19.35-1.36-1.6-.88-3.8,1.15-5.16,6.82-1.46,13.73-.39,20.58-.74,2.77-.14,5.57,.41,8.32-.35,1.08-.08,1.65,.6,2.15,1.41,.86,1.72,.72,3.58,.78,5.41Z"/>
      <path class="cls-3" d="M471.43,304.05c-4.14,1.78-8.48,.59-12.72,.8-5.39,.26-10.79,.2-16.18,.28,.63-.86,1.49-1.35,2.54-1.35,8.79-.03,17.58-.78,26.36,.26Z"/>
      <path class="cls-3" d="M369.48,320.76c4.76-1.8,9.66-.78,14.51-.72-4.81,.8-9.66,.73-14.51,.72Z"/>
    </g>
  </g>
</svg>